# Blender 3.3.1
# www.blender.org
mtllib fake_instrument.mtl
o Cylinder
v -3.471655 2.567729 0.927350
v -6.502155 4.729863 2.390648
v -3.459244 2.576988 0.939371
v -6.489744 4.739123 2.402669
v -3.447678 2.583408 0.953839
v -6.478179 4.745543 2.417137
v -3.437402 2.586740 0.970197
v -6.467902 4.748875 2.433496
v -3.428811 2.586858 0.987817
v -6.459311 4.748992 2.451115
v -3.422234 2.583755 1.006022
v -6.452734 4.745890 2.469320
v -3.417925 2.577552 1.024112
v -6.448425 4.739686 2.487410
v -3.416049 2.568486 1.041392
v -6.446549 4.730621 2.504690
v -3.416678 2.556907 1.057198
v -6.447178 4.719042 2.520496
v -3.419788 2.543260 1.070922
v -6.450288 4.705394 2.534220
v -3.425260 2.528067 1.082037
v -6.455760 4.690202 2.545336
v -3.432883 2.511915 1.090117
v -6.463383 4.674049 2.553415
v -3.442365 2.495422 1.094849
v -6.472865 4.657557 2.558148
v -3.453340 2.479224 1.096054
v -6.483840 4.641358 2.559352
v -3.465387 2.463942 1.093683
v -6.495888 4.626077 2.556982
v -3.478044 2.450164 1.087829
v -6.508544 4.612299 2.551127
v -3.490824 2.438419 1.078717
v -6.521324 4.600554 2.542015
v -3.503235 2.429159 1.066695
v -6.533735 4.591294 2.529994
v -3.514801 2.422740 1.052228
v -6.545301 4.584875 2.515526
v -3.525077 2.419407 1.035869
v -6.555577 4.581542 2.499168
v -3.533668 2.419290 1.018250
v -6.564168 4.581425 2.481548
v -3.540245 2.422393 1.000045
v -6.570745 4.584527 2.463343
v -3.544554 2.428596 0.981955
v -6.575054 4.590731 2.445253
v -3.546430 2.437662 0.964675
v -6.576931 4.599796 2.427973
v -3.545801 2.449241 0.948869
v -6.576301 4.611375 2.412167
v -3.542691 2.462888 0.935145
v -6.573191 4.625023 2.398443
v -3.537219 2.478081 0.924029
v -6.567719 4.640215 2.387327
v -3.529596 2.494233 0.915950
v -6.560096 4.656368 2.379248
v -3.520114 2.510725 0.911217
v -6.550614 4.672860 2.374516
v -3.509139 2.526924 0.910013
v -6.539639 4.689058 2.373311
v -3.497092 2.542206 0.912383
v -6.527592 4.704340 2.375682
v -3.484435 2.555984 0.918237
v -6.514935 4.718118 2.381536
vn 0.1587 0.6962 -0.7001
vn 0.2791 0.7750 -0.5670
vn 0.3889 0.8240 -0.4122
vn 0.4837 0.8413 -0.2414
vn 0.5599 0.8263 -0.0614
vn 0.6146 0.7795 0.1209
vn 0.6456 0.7028 0.2986
vn 0.6519 0.5991 0.4648
vn 0.6331 0.4724 0.6132
vn 0.5900 0.3275 0.7380
vn 0.5242 0.1700 0.8345
vn 0.4383 0.0060 0.8988
vn 0.3355 -0.1583 0.9287
vn 0.2198 -0.3164 0.9228
vn 0.0957 -0.4624 0.8815
vn -0.0321 -0.5907 0.8063
vn -0.1587 -0.6962 0.7001
vn -0.2791 -0.7750 0.5670
vn -0.3889 -0.8240 0.4121
vn -0.4837 -0.8413 0.2414
vn -0.5599 -0.8263 0.0614
vn -0.6146 -0.7796 -0.1209
vn -0.6456 -0.7028 -0.2986
vn -0.6519 -0.5991 -0.4649
vn -0.6331 -0.4724 -0.6132
vn -0.5900 -0.3275 -0.7380
vn -0.5242 -0.1700 -0.8345
vn -0.4383 -0.0060 -0.8988
vn -0.3355 0.1583 -0.9287
vn -0.2198 0.3164 -0.9228
vn -0.7576 0.5405 0.3658
vn -0.0957 0.4624 -0.8815
vn 0.0321 0.5907 -0.8063
vn 0.7576 -0.5405 -0.3658
vn 0.3889 0.8240 -0.4121
vn -0.3888 -0.8240 0.4122
vn -0.5599 -0.8263 0.0615
vn -0.6146 -0.7795 -0.1209
vn -0.5242 -0.1700 -0.8344
vn -0.3355 0.1583 -0.9286
vn -0.7577 0.5404 0.3659
vn -0.7576 0.5406 0.3658
vn -0.7576 0.5405 0.3659
vn -0.7575 0.5405 0.3660
vn -0.7578 0.5404 0.3657
vn -0.7577 0.5406 0.3657
vn -0.7575 0.5406 0.3660
vn -0.7574 0.5408 0.3659
vn -0.7577 0.5404 0.3658
vn -0.7577 0.5405 0.3656
vn -0.7575 0.5405 0.3661
vn -0.7577 0.5405 0.3657
vn -0.7579 0.5402 0.3657
vn -0.7577 0.5405 0.3658
vn 0.7577 -0.5404 -0.3658
vn 0.7576 -0.5406 -0.3657
vn 0.7576 -0.5406 -0.3658
vn 0.7577 -0.5405 -0.3658
vn 0.7576 -0.5405 -0.3659
vn 0.7576 -0.5404 -0.3661
vn 0.7577 -0.5406 -0.3656
vt 1.000000 0.500000
vt 0.000000 0.500000
vt 0.750000 0.490000
vt 1.000000 1.000000
vt 0.250000 0.490000
vt 0.000000 1.000000
vt 0.968750 0.500000
vt 0.796822 0.485388
vt 0.968750 1.000000
vt 0.296822 0.485388
vt 0.937500 0.500000
vt 0.841844 0.471731
vt 0.937500 1.000000
vt 0.341844 0.471731
vt 0.906250 0.500000
vt 0.883337 0.449553
vt 0.906250 1.000000
vt 0.383337 0.449553
vt 0.875000 0.500000
vt 0.919706 0.419706
vt 0.875000 1.000000
vt 0.419706 0.419706
vt 0.843750 0.500000
vt 0.949553 0.383337
vt 0.843750 1.000000
vt 0.449553 0.383337
vt 0.812500 0.500000
vt 0.971731 0.341844
vt 0.812500 1.000000
vt 0.471731 0.341844
vt 0.781250 0.500000
vt 0.985388 0.296822
vt 0.781250 1.000000
vt 0.485388 0.296822
vt 0.750000 0.500000
vt 0.990000 0.250000
vt 0.750000 1.000000
vt 0.490000 0.250000
vt 0.718750 0.500000
vt 0.985388 0.203178
vt 0.718750 1.000000
vt 0.485388 0.203178
vt 0.687500 0.500000
vt 0.971731 0.158156
vt 0.687500 1.000000
vt 0.471731 0.158156
vt 0.656250 0.500000
vt 0.949553 0.116663
vt 0.656250 1.000000
vt 0.449553 0.116663
vt 0.625000 0.500000
vt 0.919706 0.080294
vt 0.625000 1.000000
vt 0.419706 0.080294
vt 0.593750 0.500000
vt 0.883337 0.050447
vt 0.593750 1.000000
vt 0.383337 0.050447
vt 0.562500 0.500000
vt 0.841844 0.028269
vt 0.562500 1.000000
vt 0.341844 0.028269
vt 0.531250 0.500000
vt 0.796822 0.014612
vt 0.531250 1.000000
vt 0.296822 0.014612
vt 0.500000 0.500000
vt 0.750000 0.010000
vt 0.500000 1.000000
vt 0.250000 0.010000
vt 0.468750 0.500000
vt 0.703178 0.014612
vt 0.468750 1.000000
vt 0.203178 0.014612
vt 0.437500 0.500000
vt 0.658156 0.028269
vt 0.437500 1.000000
vt 0.158156 0.028269
vt 0.406250 0.500000
vt 0.616663 0.050447
vt 0.406250 1.000000
vt 0.116663 0.050447
vt 0.375000 0.500000
vt 0.580294 0.080294
vt 0.375000 1.000000
vt 0.080294 0.080294
vt 0.343750 0.500000
vt 0.550447 0.116663
vt 0.343750 1.000000
vt 0.050447 0.116663
vt 0.312500 0.500000
vt 0.528269 0.158156
vt 0.312500 1.000000
vt 0.028269 0.158156
vt 0.281250 0.500000
vt 0.514612 0.203178
vt 0.281250 1.000000
vt 0.014612 0.203178
vt 0.250000 0.500000
vt 0.510000 0.250000
vt 0.250000 1.000000
vt 0.010000 0.250000
vt 0.218750 0.500000
vt 0.514612 0.296822
vt 0.218750 1.000000
vt 0.014612 0.296822
vt 0.187500 0.500000
vt 0.528269 0.341844
vt 0.187500 1.000000
vt 0.028269 0.341844
vt 0.156250 0.500000
vt 0.550447 0.383337
vt 0.156250 1.000000
vt 0.050447 0.383337
vt 0.125000 0.500000
vt 0.580294 0.419706
vt 0.125000 1.000000
vt 0.080294 0.419706
vt 0.093750 0.500000
vt 0.616663 0.449553
vt 0.093750 1.000000
vt 0.116663 0.449553
vt 0.062500 0.500000
vt 0.658156 0.471731
vt 0.158156 0.471731
vt 0.062500 1.000000
vt 0.031250 0.500000
vt 0.703178 0.485388
vt 0.203178 0.485388
vt 0.031250 1.000000
s 0
f 2/4/1 3/7/1 1/1/1
f 3/7/2 6/13/2 5/11/2
f 6/13/3 7/15/3 5/11/3
f 8/17/4 9/19/4 7/15/4
f 10/21/5 11/23/5 9/19/5
f 11/23/6 14/29/6 13/27/6
f 14/29/7 15/31/7 13/27/7
f 15/31/8 18/37/8 17/35/8
f 18/37/9 19/39/9 17/35/9
f 20/41/10 21/43/10 19/39/10
f 22/45/11 23/47/11 21/43/11
f 24/49/12 25/51/12 23/47/12
f 26/53/13 27/55/13 25/51/13
f 28/57/14 29/59/14 27/55/14
f 30/61/15 31/63/15 29/59/15
f 31/63/16 34/69/16 33/67/16
f 33/67/17 36/73/17 35/71/17
f 36/73/18 37/75/18 35/71/18
f 38/77/19 39/79/19 37/75/19
f 40/81/20 41/83/20 39/79/20
f 41/83/21 44/89/21 43/87/21
f 43/87/22 46/93/22 45/91/22
f 45/91/23 48/97/23 47/95/23
f 47/95/24 50/101/24 49/99/24
f 50/101/25 51/103/25 49/99/25
f 52/105/26 53/107/26 51/103/26
f 53/107/27 56/113/27 55/111/27
f 56/113/28 57/115/28 55/111/28
f 58/117/29 59/119/29 57/115/29
f 60/121/30 61/123/30 59/119/30
f 6/14/31 54/110/31 38/78/31
f 61/123/32 64/130/32 63/127/32
f 64/130/33 1/2/33 63/127/33
f 31/64/34 47/96/34 63/128/34
f 2/4/1 4/9/1 3/7/1
f 3/7/2 4/9/2 6/13/2
f 6/13/35 8/17/35 7/15/35
f 8/17/4 10/21/4 9/19/4
f 10/21/5 12/25/5 11/23/5
f 11/23/6 12/25/6 14/29/6
f 14/29/7 16/33/7 15/31/7
f 15/31/8 16/33/8 18/37/8
f 18/37/9 20/41/9 19/39/9
f 20/41/10 22/45/10 21/43/10
f 22/45/11 24/49/11 23/47/11
f 24/49/12 26/53/12 25/51/12
f 26/53/13 28/57/13 27/55/13
f 28/57/14 30/61/14 29/59/14
f 30/61/15 32/65/15 31/63/15
f 31/63/16 32/65/16 34/69/16
f 33/67/17 34/69/17 36/73/17
f 36/73/18 38/77/18 37/75/18
f 38/77/36 40/81/36 39/79/36
f 40/81/20 42/85/20 41/83/20
f 41/83/37 42/85/37 44/89/37
f 43/87/38 44/89/38 46/93/38
f 45/91/23 46/93/23 48/97/23
f 47/95/24 48/97/24 50/101/24
f 50/101/25 52/105/25 51/103/25
f 52/105/26 54/109/26 53/107/26
f 53/107/39 54/109/39 56/113/39
f 56/113/28 58/117/28 57/115/28
f 58/117/40 60/121/40 59/119/40
f 60/121/30 62/126/30 61/123/30
f 6/14/41 4/10/41 2/5/41
f 2/5/42 64/129/42 6/14/42
f 64/129/43 62/125/43 6/14/43
f 62/125/44 60/122/44 58/118/44
f 58/118/45 56/114/45 54/110/45
f 54/110/45 52/106/45 50/102/45
f 50/102/46 48/98/46 54/110/46
f 48/98/47 46/94/47 54/110/47
f 46/94/48 44/90/48 42/86/48
f 42/86/49 40/82/49 38/78/49
f 38/78/31 36/74/31 30/62/31
f 36/74/43 34/70/43 30/62/43
f 34/70/41 32/66/41 30/62/41
f 30/62/42 28/58/42 22/46/42
f 28/58/50 26/54/50 22/46/50
f 26/54/51 24/50/51 22/46/51
f 22/46/52 20/42/52 14/30/52
f 20/42/43 18/38/43 14/30/43
f 18/38/44 16/34/44 14/30/44
f 14/30/53 12/26/53 10/22/53
f 10/22/43 8/18/43 6/14/43
f 62/125/31 58/118/31 6/14/31
f 58/118/31 54/110/31 6/14/31
f 46/94/54 42/86/54 54/110/54
f 42/86/31 38/78/31 54/110/31
f 14/30/42 10/22/42 6/14/42
f 38/78/31 30/62/31 22/46/31
f 22/46/31 14/30/31 38/78/31
f 14/30/31 6/14/31 38/78/31
f 61/123/32 62/126/32 64/130/32
f 64/130/33 2/6/33 1/2/33
f 63/128/55 1/3/55 3/8/55
f 3/8/56 5/12/56 7/16/56
f 7/16/34 9/20/34 11/24/34
f 11/24/57 13/28/57 7/16/57
f 13/28/58 15/32/58 7/16/58
f 15/32/59 17/36/59 19/40/59
f 19/40/59 21/44/59 23/48/59
f 23/48/34 25/52/34 31/64/34
f 25/52/59 27/56/59 31/64/59
f 27/56/60 29/60/60 31/64/60
f 31/64/58 33/68/58 35/72/58
f 35/72/34 37/76/34 31/64/34
f 37/76/34 39/80/34 31/64/34
f 39/80/34 41/84/34 47/96/34
f 41/84/59 43/88/59 47/96/59
f 43/88/59 45/92/59 47/96/59
f 47/96/57 49/100/57 55/112/57
f 49/100/34 51/104/34 55/112/34
f 51/104/57 53/108/57 55/112/57
f 55/112/34 57/116/34 59/120/34
f 59/120/61 61/124/61 63/128/61
f 63/128/34 3/8/34 15/32/34
f 3/8/34 7/16/34 15/32/34
f 15/32/34 19/40/34 31/64/34
f 19/40/34 23/48/34 31/64/34
f 55/112/34 59/120/34 47/96/34
f 59/120/34 63/128/34 47/96/34
f 31/64/34 39/80/34 47/96/34
f 63/128/34 15/32/34 31/64/34
